<svg xmlns="http://www.w3.org/2000/svg" xmlns:xlink="http://www.w3.org/1999/xlink" width="87" height="87" viewBox="0 0 87 87" fill="none"><ellipse  cx="44.14495849609375" cy="43.83758544921875" rx="11.68499755859375" ry="11.6036376953125"    fill="#FFFFFF" ></ellipse><path fill-rule="evenodd"  fill="rgba(255, 195, 0, 1)"  d="M44.145 55.4412C50.5984 55.4412 55.83 50.2461 55.83 43.8376C55.83 37.4291 50.5984 32.2339 44.145 32.2339C37.6915 32.2339 32.46 37.4291 32.46 43.8376C32.46 50.2461 37.6915 55.4412 44.145 55.4412ZM44.145 38.7265C46.9677 38.7265 49.3374 41.0148 49.3374 43.8376C49.3374 46.7053 47.0127 48.9487 44.145 48.9487C41.3222 48.9487 38.9525 46.6604 38.9525 43.8376C38.9525 40.9699 41.2772 38.7265 44.145 38.7265Z"></path><ellipse  cx="11.68499755859375" cy="11.6036376953125" rx="11.68499755859375" ry="11.6036376953125"    fill="#FFFFFF" ></ellipse><path fill-rule="evenodd"  fill="rgba(0, 225, 196, 1)"  d="M11.685 23.2073C18.1384 23.2073 23.37 18.0122 23.37 11.6036C23.37 5.19513 18.1384 0 11.685 0C5.23155 0 0 5.19513 0 11.6036C0 18.0122 5.23155 23.2073 11.685 23.2073ZM11.685 6.49254C14.5078 6.49254 16.8775 8.78086 16.8775 11.6036C16.8775 14.4714 14.5527 16.7147 11.685 16.7147C8.86222 16.7147 6.49254 14.4264 6.49254 11.6036C6.49254 8.73592 8.81728 6.49254 11.685 6.49254Z"></path><ellipse  cx="75.31488037109375" cy="11.6036376953125" rx="11.68499755859375" ry="11.6036376953125"    fill="#FFFFFF" ></ellipse><path fill-rule="evenodd"  fill="rgba(48, 220, 246, 1)"  d="M75.3149 23.2073C81.7683 23.2073 86.9999 18.0122 86.9999 11.6036C86.9999 5.19513 81.7683 0 75.3149 0C68.8614 0 63.6299 5.19513 63.6299 11.6036C63.6299 18.0122 68.8614 23.2073 75.3149 23.2073ZM75.3149 6.49254C78.1377 6.49254 80.5073 8.78086 80.5073 11.6036C80.5073 14.4714 78.1826 16.7147 75.3149 16.7147C72.4921 16.7147 70.1224 14.4264 70.1224 11.6036C70.1224 8.73592 72.4472 6.49254 75.3149 6.49254Z"></path><path d="M43.5 87C36.948 87 31.6367 81.6887 31.6367 75.1367C31.6367 68.5838 36.948 63.2725 43.5 63.2725C50.052 63.2725 55.3633 68.5838 55.3633 75.1367C55.3633 81.6887 50.052 87 43.5 87ZM63.2725 75.1367C63.2725 81.6887 68.5838 87 75.1367 87C81.6887 87 87 81.6887 87 75.1367C87 68.5838 81.6887 63.2725 75.1367 63.2725C68.5838 63.2725 63.2725 68.5838 63.2725 75.1367ZM87 43.5C87 36.948 81.6887 31.6367 75.1367 31.6367C68.5838 31.6367 63.2725 36.948 63.2725 43.5C63.2725 50.052 68.5838 55.3633 75.1367 55.3633C81.6887 55.3633 87 50.052 87 43.5ZM11.8633 31.6367C5.31135 31.6367 0 36.948 0 43.5C0 50.052 5.31135 55.3633 11.8633 55.3633C18.4162 55.3633 23.7275 50.052 23.7275 43.5C23.7275 36.948 18.4162 31.6367 11.8633 31.6367ZM31.6367 11.8633C31.6367 5.31135 36.948 0 43.5 0C50.052 0 55.3633 5.31135 55.3633 11.8633C55.3633 18.4162 50.052 23.7275 43.5 23.7275C36.948 23.7275 31.6367 18.4162 31.6367 11.8633ZM23.7275 75.1367C23.7275 68.5838 18.4162 63.2725 11.8633 63.2725C5.31135 63.2725 0 68.5838 0 75.1367C0 81.6887 5.31135 87 11.8633 87C18.4162 87 23.7275 81.6887 23.7275 75.1367Z" fill-rule="evenodd"  fill="#2E7EFF" ></path></svg>